<?xml version="1.0" encoding="UTF-8"?>
<svg id="Layer_2" xmlns="http://www.w3.org/2000/svg" xmlns:xlink="http://www.w3.org/1999/xlink" viewBox="0 0 1248.89 227.73">
  <defs>
    <style>
      .cls-1 {
        fill: url(#linear-gradient-2);
      }

      .cls-2 {
        fill: url(#linear-gradient-4);
      }

      .cls-3 {
        fill: url(#linear-gradient-3);
      }

      .cls-4 {
        fill: url(#linear-gradient-5);
      }

      .cls-5 {
        fill: url(#linear-gradient-8);
      }

      .cls-6 {
        fill: url(#linear-gradient-7);
      }

      .cls-7 {
        fill: url(#linear-gradient-9);
      }

      .cls-8 {
        fill: url(#linear-gradient-6);
      }

      .cls-9 {
        fill: #f4f4f4;
      }

      .cls-10 {
        fill: url(#linear-gradient);
      }

      .cls-11 {
        fill: #e8e8e8;
      }
    </style>
    <linearGradient id="linear-gradient" x1="115.62" y1="57.74" x2="115.62" y2="97.04" gradientUnits="userSpaceOnUse">
      <stop offset="0" stop-color="#2e6294"/>
      <stop offset="1" stop-color="#284275"/>
    </linearGradient>
    <linearGradient id="linear-gradient-2" x1="80.22" y1="69.99" x2="99.57" y2="103.51" xlink:href="#linear-gradient"/>
    <linearGradient id="linear-gradient-3" x1="60.22" y1="101.23" x2="92.2" y2="119.69" xlink:href="#linear-gradient"/>
    <linearGradient id="linear-gradient-4" x1="63.94" y1="147.24" x2="97.99" y2="127.59" xlink:href="#linear-gradient"/>
    <linearGradient id="linear-gradient-5" x1="89.34" y1="167.61" x2="114.53" y2="142.42" xlink:href="#linear-gradient"/>
    <linearGradient id="linear-gradient-6" x1="129.31" y1="173.48" x2="129.31" y2="136.54" xlink:href="#linear-gradient"/>
    <linearGradient id="linear-gradient-7" x1="163.7" y1="150.84" x2="136.85" y2="123.99" xlink:href="#linear-gradient"/>
    <linearGradient id="linear-gradient-8" x1="174.38" y1="110.45" x2="135.68" y2="110.45" xlink:href="#linear-gradient"/>
    <linearGradient id="linear-gradient-9" x1="141.35" y1="71.7" x2="141.35" y2="101.81" xlink:href="#linear-gradient"/>
  </defs>
  <g id="Layer_1-2" data-name="Layer_1">
    <g>
      <g>
        <path class="cls-11" d="M692.8,172.38c-8.21,0-15.71-1.44-22.49-4.32-6.78-2.88-12.63-6.94-17.55-12.19-4.92-5.24-8.71-11.42-11.36-18.52-2.65-7.11-3.98-14.88-3.98-23.33s1.33-16.22,3.98-23.33c2.65-7.1,6.44-13.29,11.36-18.56,4.92-5.27,10.77-9.34,17.55-12.22,6.78-2.88,14.28-4.32,22.49-4.32s15.69,1.44,22.45,4.32c6.76,2.88,12.59,6.96,17.52,12.22,4.92,5.27,8.72,11.46,11.4,18.56,2.68,7.11,4.02,14.88,4.02,23.33s-1.34,16.21-4.02,23.29c-2.68,7.08-6.48,13.26-11.4,18.52-4.92,5.27-10.76,9.34-17.52,12.22s-14.24,4.32-22.45,4.32ZM692.8,166.26c7.29,0,13.91-1.32,19.85-3.95,5.94-2.63,11.01-6.32,15.22-11.07s7.45-10.3,9.71-16.66c2.27-6.36,3.4-13.22,3.4-20.57s-1.13-14.29-3.4-20.65c-2.27-6.36-5.51-11.91-9.71-16.66-4.21-4.74-9.28-8.45-15.22-11.11-5.94-2.66-12.56-3.99-19.85-3.99s-13.99,1.33-19.93,3.99c-5.94,2.66-11.01,6.35-15.22,11.07-4.21,4.72-7.43,10.27-9.68,16.66-2.25,6.39-3.37,13.28-3.37,20.68s1.12,14.27,3.37,20.61c2.24,6.34,5.47,11.88,9.68,16.62s9.28,8.44,15.22,11.07c5.94,2.63,12.58,3.95,19.93,3.95Z"/>
        <path class="cls-11" d="M767.15,170.81v-81.99h6.42v14.24h.46c1.68-2.68,3.84-5.2,6.46-7.57,2.62-2.36,5.83-4.27,9.6-5.74,3.77-1.46,8.21-2.2,13.31-2.2,6.07,0,11.14,1.08,15.22,3.24,4.08,2.16,7.12,5.13,9.14,8.91,2.01,3.78,3.02,8.1,3.02,12.97v58.14h-6.43v-57.47c0-6.56-2.01-11.58-6.04-15.06-4.03-3.48-9.54-5.22-16.52-5.22-5.66,0-10.59,1.13-14.8,3.39-4.21,2.26-7.48,5.17-9.83,8.72s-3.52,7.32-3.52,11.29v54.34h-6.5Z"/>
        <path class="cls-11" d="M854.35,170.81V57.22h47.42c7.09,0,13.28,1.22,18.59,3.65,5.3,2.44,9.43,5.94,12.39,10.51,2.96,4.57,4.44,10.06,4.44,16.47,0,7.26-1.8,13.37-5.39,18.34-3.6,4.97-9.42,8.35-17.48,10.14v.37c4.59.89,8.31,2.5,11.17,4.81,2.85,2.31,4.97,5.32,6.35,9.02,1.38,3.7,2.19,8.14,2.45,13.3.2,5.32.47,9.62.8,12.9.33,3.28.73,5.84,1.19,7.68.46,1.84.93,3.18,1.42,4.03.48.84.98,1.49,1.49,1.94v.45h-7.65c-.61-.6-1.2-1.6-1.76-3.02-.56-1.42-1.06-3.91-1.49-7.49-.43-3.58-.78-8.89-1.03-15.95-.36-8.1-2.51-14.24-6.46-18.41-3.95-4.17-10.37-6.26-19.24-6.26h-40.08v51.13h-7.11ZM861.46,113.87h37.71c10.45,0,18.19-2.24,23.21-6.71,5.02-4.47,7.54-10.68,7.54-18.63s-2.58-14.4-7.73-18.75c-5.15-4.35-12.44-6.52-21.88-6.52h-38.86v50.61Z"/>
        <path class="cls-11" d="M980.79,172.15c-5.3,0-10.03-.88-14.19-2.65-4.16-1.76-7.41-4.3-9.75-7.6-2.35-3.3-3.52-7.29-3.52-11.96,0-5.81,1.46-10.31,4.4-13.49,2.93-3.18,6.92-5.54,11.97-7.08,5.05-1.54,10.73-2.68,17.06-3.43,6.17-.79,11.13-1.65,14.88-2.57,3.75-.92,6.47-2.25,8.18-3.99,1.71-1.74,2.56-4.1,2.56-7.08,0-6.21-1.89-11.07-5.66-14.57-3.77-3.5-9.46-5.25-17.06-5.25-8.06,0-14.19,1.71-18.4,5.14s-6.57,8.5-7.08,15.21h-6.42c.25-4.52,1.49-8.7,3.71-12.52,2.22-3.83,5.62-6.92,10.21-9.28,4.59-2.36,10.56-3.54,17.9-3.54,4.38,0,8.29.49,11.7,1.45,3.42.97,6.35,2.4,8.8,4.29,2.8,2.09,4.91,4.78,6.31,8.09,1.4,3.3,2.1,7.19,2.1,11.67v44.42c0,3.23.5,5.6,1.49,7.12s2.69,2.27,5.09,2.27c.87,0,1.68-.11,2.45-.33.77-.22,1.38-.43,1.84-.63h.38v4.77c-.66.3-1.53.57-2.6.82-1.07.25-2.27.37-3.6.37-2.96,0-5.24-.63-6.85-1.9-1.61-1.27-2.73-2.92-3.37-4.96-.64-2.04-.96-4.17-.96-6.41v-6.71l1.61,2.76h-1.76c-1.99,4.97-5.74,9.14-11.24,12.52-5.51,3.38-12.24,5.07-20.19,5.07ZM982.01,167.23c6.07,0,11.38-1.17,15.95-3.5,4.56-2.33,8.11-5.47,10.63-9.39,2.52-3.92,3.79-8.35,3.79-13.27v-18.41c-.97,1.04-2.4,2.04-4.28,2.98-1.89.94-4.42,1.81-7.61,2.61-3.19.8-7.25,1.54-12.2,2.24-6.07.75-11.19,1.8-15.37,3.17-4.18,1.37-7.34,3.32-9.49,5.85s-3.21,5.99-3.21,10.36,1.11,7.83,3.33,10.36c2.22,2.53,5.01,4.34,8.38,5.4,3.37,1.07,6.73,1.6,10.1,1.6Z"/>
        <path class="cls-11" d="M1043.05,170.81v-81.99h6.42v14.39h.46c1.48-2.73,3.43-5.29,5.85-7.68,2.42-2.39,5.38-4.31,8.87-5.78,3.49-1.46,7.56-2.2,12.2-2.2,6.37,0,11.45,1.54,15.22,4.62,3.77,3.08,6.27,7.21,7.5,12.37h.31c2.29-4.82,5.83-8.86,10.59-12.11,4.77-3.25,10.47-4.88,17.1-4.88,5.56,0,10.15,1.08,13.77,3.24,3.62,2.16,6.32,5.13,8.11,8.91,1.78,3.78,2.68,8.1,2.68,12.97v58.14h-6.5v-57.62c0-6.46-1.75-11.43-5.24-14.91-3.49-3.48-8.22-5.22-14.19-5.22-5,0-9.41,1.12-13.23,3.35-3.83,2.24-6.8,5.13-8.91,8.68-2.12,3.55-3.17,7.27-3.17,11.14v54.56h-6.5v-57.62c0-6.46-1.68-11.43-5.05-14.91-3.37-3.48-8.06-5.22-14.07-5.22-4.95,0-9.37,1.12-13.27,3.35-3.9,2.24-6.95,5.13-9.14,8.68-2.19,3.55-3.29,7.27-3.29,11.14v54.56h-6.5Z"/>
        <path class="cls-11" d="M1174.39,197.57v-108.75h6.42v21.02h.38c1.78-5.02,4.27-9.19,7.46-12.52,3.19-3.33,6.87-5.81,11.05-7.45,4.18-1.64,8.57-2.46,13.16-2.46,6.53,0,12.52,1.58,17.97,4.73,5.46,3.16,9.83,7.86,13.12,14.12,3.29,6.26,4.93,14.09,4.93,23.48,0,8.65-1.54,16.16-4.63,22.55-3.09,6.39-7.36,11.33-12.81,14.83-5.46,3.5-11.78,5.25-18.97,5.25s-13.99-1.95-19.62-5.85c-5.63-3.9-9.55-9.1-11.74-15.62h-.38c.05,2.39.09,4.92.12,7.6.02,2.68.04,5.54.04,8.57v30.49h-6.5ZM1211.87,166.94c5.97,0,11.22-1.53,15.76-4.58,4.54-3.06,8.11-7.35,10.71-12.89,2.6-5.54,3.9-12.04,3.9-19.49,0-8.2-1.35-15.03-4.05-20.5-2.7-5.46-6.35-9.59-10.94-12.37-4.59-2.78-9.74-4.17-15.45-4.17-6.27,0-11.74,1.58-16.41,4.73-4.67,3.16-8.3,7.53-10.9,13.12s-3.9,12.06-3.9,19.42,1.27,13.65,3.82,19.19c2.55,5.54,6.16,9.85,10.82,12.93,4.67,3.08,10.21,4.62,16.64,4.62Z"/>
      </g>
      <g>
        <path class="cls-9" d="M268.69,170.81V57.22h87.43v21.69h-60.81v22.58h52.63v20.65h-52.63v26.39h61.88v22.29h-88.5Z"/>
        <path class="cls-9" d="M396.97,172.97c-5.46,0-10.34-.93-14.65-2.79-4.31-1.86-7.7-4.63-10.17-8.31-2.47-3.68-3.71-8.17-3.71-13.49,0-6.01,1.46-10.68,4.4-14.01,2.93-3.33,6.88-5.78,11.86-7.34,4.97-1.57,10.47-2.7,16.48-3.39,5-.65,9.04-1.38,12.12-2.2,3.08-.82,5.34-1.88,6.77-3.17,1.43-1.29,2.14-2.96,2.14-4.99,0-2.93-1.01-5.29-3.02-7.08-2.02-1.79-5.14-2.68-9.37-2.68-4.69,0-8.21.97-10.56,2.91-2.35,1.94-3.67,4.52-3.98,7.75h-22.72c.2-4.62,1.66-8.98,4.36-13.08,2.7-4.1,6.74-7.42,12.12-9.95,5.38-2.53,12.2-3.8,20.46-3.8,5.3,0,9.91.39,13.81,1.16,3.9.77,7.28,2,10.14,3.69,4.33,2.44,7.53,5.71,9.6,9.84,2.07,4.12,3.1,8.94,3.1,14.46v41.67c0,3.18.25,5.69.76,7.53.51,1.84,1.3,3.11,2.37,3.8v1.34h-23.94c-.66-.94-1.24-2.26-1.72-3.95-.49-1.69-.85-3.68-1.11-5.96h-.31c-2.75,3.73-6.04,6.67-9.87,8.83-3.83,2.16-8.95,3.24-15.38,3.24ZM404.7,157.25c3.67,0,6.86-.68,9.56-2.05,2.7-1.37,4.81-3.23,6.31-5.59,1.5-2.36,2.26-5,2.26-7.94v-10.51c-1.17.7-2.54,1.3-4.09,1.83-1.56.52-3.2,1.01-4.93,1.45-1.73.45-3.52.87-5.35,1.27-3.62.75-6.62,1.59-8.99,2.53-2.37.94-4.13,2.15-5.28,3.62s-1.72,3.39-1.72,5.78.55,4.21,1.64,5.63c1.1,1.42,2.58,2.44,4.44,3.06,1.86.62,3.91.93,6.16.93Z"/>
        <path class="cls-9" d="M497.4,173.05c-8.01,0-14.93-1.17-20.77-3.5-5.84-2.33-10.39-5.59-13.65-9.76-3.26-4.17-5.1-8.97-5.51-14.39h23.18c.71,3.83,2.51,6.77,5.39,8.83,2.88,2.06,6.72,3.09,11.51,3.09,4.38,0,7.78-.83,10.17-2.5,2.4-1.66,3.6-3.94,3.6-6.82,0-2.43-.98-4.26-2.95-5.48-1.96-1.22-4.56-2.16-7.8-2.83-3.24-.67-6.8-1.35-10.67-2.05-3.72-.7-7.37-1.53-10.94-2.5-3.57-.97-6.78-2.33-9.64-4.1-2.86-1.76-5.12-4.15-6.81-7.16-1.68-3.01-2.52-6.87-2.52-11.59,0-5.56,1.55-10.22,4.67-13.98,3.11-3.75,7.32-6.58,12.62-8.5,5.3-1.91,11.22-2.87,17.75-2.87,7.75,0,14.23,1.01,19.43,3.02,5.2,2.01,9.26,4.82,12.16,8.42,2.91,3.6,4.72,7.76,5.43,12.49h-22.87c-.51-1.94-1.38-3.55-2.6-4.85-1.22-1.29-2.79-2.25-4.7-2.87-1.91-.62-4.19-.93-6.85-.93-3.72,0-6.71.72-8.95,2.16-2.25,1.44-3.37,3.45-3.37,6.04,0,2.04.92,3.58,2.75,4.62,1.84,1.04,4.3,1.86,7.38,2.46,3.08.6,6.54,1.24,10.36,1.94,3.72.65,7.46,1.47,11.21,2.46s7.18,2.42,10.29,4.29c3.11,1.86,5.61,4.4,7.5,7.6,1.89,3.21,2.83,7.37,2.83,12.48,0,5.86-1.63,10.78-4.9,14.76-3.26,3.98-7.73,6.97-13.39,8.98-5.66,2.01-12.11,3.02-19.35,3.02Z"/>
        <path class="cls-9" d="M563.18,198.02c-1.58,0-3.66-.03-6.23-.08-2.58-.05-4.9-.1-6.96-.15-2.07-.05-3.17-.1-3.33-.15v-18.86h.61c.97,0,2.35.02,4.13.07,1.78.05,3.31.07,4.59.07,2.4,0,4.33-.25,5.81-.75,1.48-.5,2.68-1.32,3.59-2.46.92-1.14,1.71-2.68,2.37-4.62l1.15-3.28-31.44-79.01h26.01l10.71,31.38c.97,2.78,1.87,5.81,2.71,9.09.84,3.28,1.58,6.39,2.22,9.32.64,2.93,1.34,6.29,2.1,10.06h.31c.87-3.78,1.64-7.14,2.33-10.1.69-2.96,1.46-6.07,2.33-9.35.87-3.28,1.76-6.29,2.68-9.02l10.25-31.38h24.55l-29.91,83.85c-2.24,6.26-4.7,11.24-7.38,14.94-2.68,3.7-5.87,6.36-9.56,7.98-3.7,1.61-8.25,2.42-13.65,2.42Z"/>
      </g>
      <g>
        <path class="cls-9" d="M101.15,52.93c3.54,9.75-1.88,20.67-1.88,20.67,0,0-11.17-4.88-14.72-14.62-3.55-9.74,1.88-20.66,1.88-20.66,0,0,11.17,4.87,14.72,14.61Z"/>
        <path class="cls-9" d="M41.72,75.84s2.86,11.85,11.83,17.03c8.98,5.19,20.68,1.74,20.68,1.74,0,0-2.86-11.85-11.84-17.04-8.99-5.18-20.67-1.73-20.67-1.73Z"/>
        <path class="cls-9" d="M31.59,133.33s9.8,7.23,20.01,5.44c10.21-1.79,16.95-11.96,16.95-11.96,0,0-9.81-7.25-20.02-5.44-10.22,1.81-16.95,11.96-16.95,11.96Z"/>
        <path class="cls-9" d="M60.77,183.88s12.17-.76,18.83-8.7c6.66-7.94,5.29-20.05,5.29-20.05,0,0-12.17.75-18.83,8.69-6.66,7.96-5.29,20.06-5.29,20.06Z"/>
        <path class="cls-9" d="M115.62,203.84s8.84-8.4,8.84-18.77c0-10.37-8.84-18.77-8.84-18.77,0,0-8.84,8.39-8.84,18.77.01,10.37,8.84,18.76,8.84,18.76Z"/>
        <path class="cls-9" d="M170.47,183.88s1.37-12.11-5.29-20.06c-6.66-7.94-18.84-8.69-18.84-8.69,0,0-1.37,12.11,5.29,20.06,6.68,7.94,18.84,8.69,18.84,8.69Z"/>
        <path class="cls-9" d="M199.66,133.33s-6.74-10.16-16.95-11.96c-10.2-1.8-20.01,5.45-20.01,5.45,0,0,6.73,10.16,16.95,11.97,10.22,1.78,20.01-5.45,20.01-5.45Z"/>
        <path class="cls-9" d="M189.52,75.84s-11.7-3.45-20.68,1.73c-8.98,5.18-11.84,17.04-11.84,17.04,0,0,11.7,3.45,20.67-1.73,8.98-5.2,11.84-17.04,11.84-17.04Z"/>
        <path class="cls-9" d="M144.81,38.32s-11.18,4.88-14.73,14.61c-3.55,9.74,1.88,20.67,1.88,20.67,0,0,11.18-4.88,14.73-14.61,3.52-9.76-1.89-20.66-1.89-20.66Z"/>
        <path class="cls-9" d="M121.14,111.36c-3.64-3.05-9.04-2.58-12.1,1.05-3.06,3.64-2.57,9.05,1.06,12.1,3.64,3.06,9.04,2.58,12.1-1.05,3.06-3.64,2.59-9.05-1.06-12.1Z"/>
        <g>
          <path class="cls-10" d="M115.62,57.74s-9.24,8.8-9.24,19.65,9.24,19.65,9.24,19.65c0,0,9.25-8.8,9.25-19.65s-9.25-19.65-9.25-19.65Z"/>
          <path class="cls-1" d="M77.27,71.7s-1.43,12.68,5.55,21c6.97,8.32,19.71,9.11,19.71,9.11,0,0,1.43-12.68-5.55-21-6.97-8.32-19.71-9.11-19.71-9.11Z"/>
          <path class="cls-3" d="M56.86,107.05s7.06,10.64,17.75,12.51c10.69,1.89,20.95-5.69,20.95-5.69,0,0-7.06-10.63-17.75-12.52-10.7-1.88-20.96,5.7-20.96,5.7Z"/>
          <path class="cls-2" d="M63.95,147.25s12.25,3.61,21.64-1.82c9.4-5.43,12.4-17.83,12.4-17.83,0,0-12.24-3.6-21.65,1.82-9.4,5.43-12.39,17.83-12.39,17.83Z"/>
          <path class="cls-4" d="M95.21,173.48s11.7-5.11,15.41-15.31c3.71-10.2-1.97-21.63-1.97-21.63,0,0-11.69,5.11-15.41,15.31-3.72,10.2,1.97,21.63,1.97,21.63Z"/>
          <path class="cls-8" d="M136.03,173.48s5.68-11.44,1.96-21.63c-3.72-10.2-15.42-15.31-15.42-15.31,0,0-5.67,11.43-1.96,21.63,3.71,10.2,15.41,15.31,15.41,15.31Z"/>
          <path class="cls-6" d="M167.3,147.25s-3-12.41-12.4-17.83c-9.4-5.43-21.64-1.82-21.64-1.82,0,0,3.01,12.4,12.41,17.83,9.39,5.44,21.64,1.83,21.64,1.83Z"/>
          <path class="cls-5" d="M174.38,107.05s-10.28-7.58-20.96-5.7c-10.69,1.89-17.75,12.52-17.75,12.52,0,0,10.27,7.57,20.96,5.68,10.69-1.87,17.75-12.51,17.75-12.51Z"/>
          <path class="cls-7" d="M153.98,71.7s-12.75.81-19.72,9.11c-6.97,8.32-5.55,21-5.55,21,0,0,12.73-.8,19.71-9.12,6.98-8.31,5.56-20.99,5.56-20.99Z"/>
        </g>
        <path class="cls-9" d="M115.62,24.87s-7.39,7.03-7.39,15.7,7.39,15.71,7.39,15.71c0,0,7.39-7.03,7.39-15.71s-7.39-15.7-7.39-15.7Z"/>
        <path class="cls-9" d="M56.38,46.44s-1.14,10.13,4.43,16.77c5.58,6.65,15.76,7.28,15.76,7.28,0,0,1.14-10.13-4.43-16.78-5.57-6.65-15.76-7.28-15.76-7.28Z"/>
        <path class="cls-9" d="M24.86,101.04s5.64,8.49,14.18,10.01c8.55,1.51,16.75-4.55,16.75-4.55,0,0-5.63-8.5-14.18-10.01-8.54-1.51-16.75,4.55-16.75,4.55Z"/>
        <path class="cls-9" d="M35.8,163.12s9.78,2.88,17.29-1.45c7.51-4.34,9.9-14.25,9.9-14.25,0,0-9.77-2.89-17.28,1.45-7.51,4.33-9.91,14.25-9.91,14.25Z"/>
        <path class="cls-9" d="M84.1,203.65s9.35-4.08,12.31-12.23c2.97-8.15-1.57-17.28-1.57-17.28,0,0-9.35,4.07-12.32,12.22-2.98,8.15,1.57,17.29,1.57,17.29Z"/>
        <path class="cls-9" d="M147.14,203.65s4.54-9.13,1.57-17.29c-2.97-8.14-12.31-12.23-12.31-12.23,0,0-4.54,9.14-1.58,17.28,2.96,8.15,12.32,12.23,12.32,12.23Z"/>
        <path class="cls-9" d="M195.44,163.12s-2.4-9.92-9.91-14.25c-7.51-4.34-17.29-1.46-17.29-1.46,0,0,2.39,9.91,9.91,14.25,7.5,4.34,17.29,1.45,17.29,1.45Z"/>
        <path class="cls-9" d="M206.38,101.04s-8.21-6.06-16.75-4.54c-8.54,1.51-14.19,10-14.19,10,0,0,8.2,6.06,16.76,4.55,8.53-1.49,14.18-10.01,14.18-10.01Z"/>
        <path class="cls-9" d="M174.86,46.44s-10.18.64-15.74,7.29c-5.58,6.64-4.44,16.78-4.44,16.78,0,0,10.17-.64,15.76-7.29,5.57-6.63,4.43-16.77,4.43-16.77Z"/>
        <path class="cls-9" d="M97.09,12.84s-5.44,7.36-4.08,15.02c1.35,7.66,8.97,12.72,8.97,12.72,0,0,5.44-7.36,4.09-15.02-1.35-7.66-8.97-12.72-8.97-12.72Z"/>
        <path class="cls-9" d="M62.25,25.52s-2.59,8.78,1.31,15.51c3.89,6.74,12.78,8.89,12.78,8.89,0,0,2.6-8.78-1.3-15.51-3.88-6.74-12.78-8.89-12.78-8.89Z"/>
        <path class="cls-9" d="M33.85,49.35s.57,9.14,6.53,14.13c5.96,5.01,15.05,3.98,15.05,3.98,0,0-.57-9.14-6.54-14.13-5.95-5.01-15.05-3.98-15.05-3.98Z"/>
        <path class="cls-9" d="M15.32,81.46s3.66,8.39,10.97,11.04c7.31,2.67,15.51-1.41,15.51-1.41,0,0-3.66-8.39-10.97-11.04-7.3-2.66-15.5,1.41-15.5,1.41Z"/>
        <path class="cls-9" d="M8.88,117.96s6.3,6.63,14.08,6.62c7.78,0,14.09-6.63,14.09-6.63,0,0-6.3-6.63-14.09-6.62-7.78,0-14.08,6.63-14.08,6.63Z"/>
        <path class="cls-9" d="M15.33,154.46s8.19,4.08,15.49,1.41c7.32-2.65,10.97-11.04,10.97-11.04,0,0-8.19-4.08-15.5-1.4-7.31,2.66-10.96,11.04-10.96,11.04Z"/>
        <path class="cls-9" d="M33.86,186.57s9.08,1.03,15.03-3.99c5.97-4.99,6.53-14.12,6.53-14.12,0,0-9.08-1.04-15.05,3.98-5.95,4.99-6.52,14.13-6.52,14.13Z"/>
        <path class="cls-9" d="M62.26,210.39s8.89-2.14,12.77-8.88c3.9-6.74,1.3-15.51,1.3-15.51,0,0-8.88,2.14-12.77,8.89-3.88,6.73-1.3,15.51-1.3,15.51Z"/>
        <path class="cls-9" d="M97.09,223.07s7.63-5.06,8.97-12.71c1.35-7.67-4.09-15.02-4.09-15.02,0,0-7.62,5.05-8.96,12.72-1.34,7.66,4.08,15.01,4.08,15.01Z"/>
        <path class="cls-9" d="M134.16,223.07s5.44-7.36,4.07-15.01c-1.35-7.66-8.98-12.71-8.98-12.71,0,0-5.43,7.34-4.06,15.01,1.35,7.65,8.97,12.72,8.97,12.72Z"/>
        <path class="cls-9" d="M168.99,210.39s2.6-8.78-1.31-15.51c-3.88-6.75-12.78-8.88-12.78-8.88,0,0-2.59,8.76,1.31,15.49,3.89,6.73,12.78,8.89,12.78,8.89Z"/>
        <path class="cls-9" d="M197.39,186.57s-.56-9.14-6.53-14.13c-5.95-5.01-15.05-3.97-15.05-3.97,0,0,.56,9.12,6.53,14.12,5.96,4.99,15.05,3.99,15.05,3.99Z"/>
        <path class="cls-9" d="M215.92,154.46s-3.64-8.39-10.97-11.05c-7.3-2.67-15.5,1.42-15.5,1.42,0,0,3.64,8.39,10.97,11.04,7.3,2.65,15.49-1.41,15.49-1.41Z"/>
        <path class="cls-9" d="M222.37,117.96s-6.31-6.64-14.09-6.63c-7.78-.01-14.08,6.63-14.08,6.63,0,0,6.29,6.64,14.08,6.62,7.78-.01,14.09-6.62,14.09-6.62Z"/>
        <path class="cls-9" d="M215.93,81.45s-8.2-4.08-15.5-1.41c-7.32,2.65-10.97,11.04-10.97,11.04,0,0,8.18,4.09,15.5,1.41,7.3-2.67,10.97-11.04,10.97-11.04Z"/>
        <path class="cls-9" d="M197.4,49.34s-9.1-1.03-15.05,3.97c-5.97,4.99-6.53,14.13-6.53,14.13,0,0,9.08,1.05,15.04-3.98,5.94-5,6.54-14.12,6.54-14.12Z"/>
        <path class="cls-9" d="M169,25.51s-8.92,2.14-12.79,8.89c-3.91,6.72-1.3,15.51-1.3,15.51,0,0,8.89-2.12,12.77-8.9,3.87-6.73,1.32-15.51,1.32-15.51Z"/>
        <path class="cls-9" d="M134.16,12.83s-7.65,5.06-8.98,12.73c-1.37,7.66,4.08,15.02,4.08,15.02,0,0,7.63-5.03,8.96-12.73,1.33-7.64-4.07-15.02-4.07-15.02Z"/>
        <path class="cls-9" d="M78.04,14.25s-3.22,6.48-1.12,12.26c2.1,5.79,8.73,8.68,8.73,8.68,0,0,3.22-6.48,1.11-12.26-2.1-5.78-8.72-8.67-8.72-8.67Z"/>
        <path class="cls-9" d="M20.46,62.56s1.69,7.04,7.01,10.11c5.33,3.07,12.27,1.03,12.27,1.03,0,0-1.7-7.03-7.03-10.1-5.31-3.08-12.25-1.04-12.25-1.04Z"/>
        <path class="cls-9" d="M7.39,136.58s5.82,4.31,11.87,3.24c6.06-1.07,10.07-7.09,10.07-7.09,0,0-5.82-4.29-11.88-3.22-6.05,1.05-10.06,7.08-10.06,7.08Z"/>
        <path class="cls-9" d="M44.98,201.69s7.22-.44,11.16-5.15c3.97-4.72,3.16-11.89,3.16-11.89,0,0-7.22.44-11.18,5.16-3.95,4.69-3.14,11.88-3.14,11.88Z"/>
        <path class="cls-9" d="M115.61,227.4s5.25-4.98,5.24-11.11c.01-6.17-5.22-11.15-5.22-11.15,0,0-5.24,4.98-5.24,11.14-.01,6.14,5.22,11.12,5.22,11.12Z"/>
        <path class="cls-9" d="M186.25,201.71s.82-7.2-3.13-11.9c-3.96-4.73-11.17-5.18-11.17-5.18,0,0-.81,7.18,3.15,11.9,3.94,4.71,11.15,5.18,11.15,5.18Z"/>
        <path class="cls-9" d="M223.84,136.61s-4.01-6.04-10.04-7.09c-6.06-1.09-11.89,3.2-11.89,3.2,0,0,3.99,6.02,10.06,7.1,6.05,1.08,11.87-3.21,11.87-3.21Z"/>
        <path class="cls-9" d="M210.79,62.59s-6.94-2.06-12.24,1.02c-5.35,3.06-7.06,10.09-7.06,10.09,0,0,6.93,2.05,12.26-1.03,5.33-3.06,7.03-10.08,7.03-10.08Z"/>
        <path class="cls-9" d="M153.22,14.26s-6.64,2.89-8.73,8.65c-2.12,5.78,1.08,12.27,1.08,12.27,0,0,6.64-2.89,8.74-8.68,2.12-5.78-1.09-12.24-1.09-12.24Z"/>
        <path class="cls-9" d="M115.62,0s-4.37,4.16-4.37,9.29,4.37,9.29,4.37,9.29c0,0,4.37-4.15,4.37-9.29,0-5.14-4.37-9.29-4.37-9.29Z"/>
        <path class="cls-9" d="M40.15,27.47s-.68,5.99,2.62,9.93c3.3,3.93,9.32,4.31,9.32,4.31,0,0,.67-5.99-2.63-9.93-3.3-3.93-9.32-4.31-9.32-4.31Z"/>
        <path class="cls-9" d="M0,97.02s3.33,5.03,8.39,5.92c5.05.89,9.91-2.69,9.91-2.69,0,0-3.34-5.03-8.4-5.92-5.06-.89-9.91,2.69-9.91,2.69Z"/>
        <path class="cls-9" d="M13.95,176.11s5.77,1.71,10.24-.86c4.44-2.57,5.85-8.43,5.85-8.43,0,0-5.78-1.7-10.23.86-4.45,2.57-5.86,8.43-5.86,8.43Z"/>
        <path class="cls-9" d="M75.47,227.73s5.52-2.4,7.29-7.24c1.76-4.81-.94-10.21-.94-10.21,0,0-5.53,2.41-7.29,7.23-1.75,4.83.94,10.22.94,10.22Z"/>
        <path class="cls-9" d="M155.78,227.73s2.68-5.4.92-10.23c-1.74-4.82-7.28-7.23-7.28-7.23,0,0-2.67,5.39-.93,10.22,1.76,4.82,7.29,7.23,7.29,7.23Z"/>
        <path class="cls-9" d="M217.3,176.11s-1.41-5.86-5.88-8.43c-4.43-2.57-10.22-.86-10.22-.86,0,0,1.42,5.86,5.86,8.43,4.45,2.56,10.23.86,10.23.86Z"/>
        <path class="cls-9" d="M231.25,97.02s-4.85-3.58-9.93-2.69c-5.05.89-8.38,5.92-8.38,5.92,0,0,4.85,3.58,9.91,2.7,5.05-.91,8.39-5.93,8.39-5.93Z"/>
        <path class="cls-9" d="M191.09,27.46s-6.02.38-9.33,4.32c-3.3,3.93-2.61,9.92-2.61,9.92,0,0,6.02-.38,9.33-4.31,3.29-3.94,2.62-9.93,2.62-9.93Z"/>
      </g>
    </g>
  </g>
</svg>